<svg xmlns="http://www.w3.org/2000/svg" viewBox="0 0 129.06 129.06"><defs><style>.cls-1{fill:#f1f3f5;}.cls-2{fill:#fff;}.cls-3,.cls-4{fill:#ed1c24;}.cls-3{fill-rule:evenodd;}</style></defs><title>Hala GoMigration</title><g id="Layer_2" data-name="Layer 2"><g id="Layer_1-2" data-name="Layer 1"><circle class="cls-1" cx="64.53" cy="64.53" r="64.53"/><rect class="cls-2" x="69.08" y="63.03" width="32.31" height="25.62"/><path class="cls-3" d="M70.43,84V79.69H77v7.75H73.89A3.44,3.44,0,0,1,70.43,84Zm25.36,3.41H93V79.69h6.53v4.07A3.71,3.71,0,0,1,95.79,87.44Zm3.73-18.26v3.09H93.64V65.5h2.15A3.7,3.7,0,0,1,99.52,69.18Zm-6.86,3.09H86.12V65.5h6.54Zm-7.52,0H78.93V65.5h6.21ZM92,87.44H85.47V79.69H92Zm-7.52,0H78V79.69h6.54ZM73.89,65.5H77.8v7.74H99.52v5.49H70.43V68.91A3.43,3.43,0,0,1,73.89,65.5Zm-7.7-24.86V87.07a4.59,4.59,0,0,0,4.62,4.56H99.22a4.53,4.53,0,0,0,4.55-4.49V51.78a4,4,0,0,0-1.42-2.43l-10.74-11a3.64,3.64,0,0,0-2.85-.94H69.45A3.25,3.25,0,0,0,66.19,40.64Z"/><rect class="cls-2" x="28.17" y="63.03" width="32.31" height="25.62"/><path class="cls-3" d="M29.53,84V79.69h6.54v7.75H33A3.44,3.44,0,0,1,29.53,84Zm25.36,3.41h-2.8V79.69h6.53v4.07A3.71,3.71,0,0,1,54.89,87.44Zm3.73-18.26v3.09H52.74V65.5h2.15A3.7,3.7,0,0,1,58.62,69.18Zm-6.86,3.09H45.22V65.5h6.54Zm-7.52,0H38V65.5h6.21ZM51.1,87.44H44.57V79.69H51.1Zm-7.51,0H37.05V79.69h6.54ZM33,65.5H36.9v7.74H58.62v5.49H29.53V68.91A3.43,3.43,0,0,1,33,65.5ZM25.28,40.64V87.07a4.6,4.6,0,0,0,4.63,4.56H58.32a4.53,4.53,0,0,0,4.55-4.49V51.78a4,4,0,0,0-1.42-2.43l-10.74-11a3.65,3.65,0,0,0-2.85-.94H28.55A3.25,3.25,0,0,0,25.28,40.64Z"/><path class="cls-2" d="M79.37,52.9h4v5.2a11.67,11.67,0,0,1-1.82.44,12.54,12.54,0,0,1-1.75.12,4.43,4.43,0,0,1-3.47-1.33,5.59,5.59,0,0,1-1.19-3.83,5.05,5.05,0,0,1,1.39-3.79,5.29,5.29,0,0,1,3.85-1.36,7.51,7.51,0,0,1,3,.62l-.71,1.7a5.11,5.11,0,0,0-2.29-.55,2.81,2.81,0,0,0-2.2.93,3.57,3.57,0,0,0-.83,2.49A4,4,0,0,0,78,56a2.32,2.32,0,0,0,2,.87,7,7,0,0,0,1.35-.14V54.67h-1.9Z"/><path class="cls-2" d="M94.84,53.5a5.46,5.46,0,0,1-1.23,3.83,5.38,5.38,0,0,1-7.08,0,5.42,5.42,0,0,1-1.24-3.84,5.38,5.38,0,0,1,1.24-3.83,4.63,4.63,0,0,1,3.55-1.32,4.57,4.57,0,0,1,3.54,1.33A5.49,5.49,0,0,1,94.84,53.5Zm-7.32,0A4.16,4.16,0,0,0,88.16,56a2.22,2.22,0,0,0,1.91.85c1.69,0,2.54-1.13,2.54-3.38s-.84-3.39-2.53-3.39a2.26,2.26,0,0,0-1.91.85A4.19,4.19,0,0,0,87.52,53.5Z"/><circle class="cls-1" cx="64.53" cy="64.53" r="11.6"/><circle class="cls-4" cx="64.53" cy="64.53" r="9.16"/><polygon class="cls-2" points="65.86 60.6 65.86 63.13 58.33 63.13 58.33 65.93 65.86 65.93 65.86 68.46 70.73 64.53 65.86 60.6"/></g></g></svg>