<svg xmlns="http://www.w3.org/2000/svg" xmlns:xlink="http://www.w3.org/1999/xlink" viewBox="0 0 24.81 33.94"><defs><style>.cls-1{fill:none;}.cls-2{clip-path:url(#clip-path);}.cls-3,.cls-4{fill:#ed1c24;}.cls-4{fill-rule:evenodd;}.cls-5{fill:#fff;}</style><clipPath id="clip-path" transform="translate(-6.63 -1.23)"><rect class="cls-1" width="36.63" height="36.63"/></clipPath></defs><title>New Activation</title><g id="Layer_2" data-name="Layer 2"><g id="Layer_1-2" data-name="Layer 1"><g class="cls-2"><circle class="cls-3" cx="18.31" cy="6.5" r="6.5"/><path class="cls-4" d="M24.94,16.16a8.41,8.41,0,0,1-5.61-14.7H8.65a2,2,0,0,0-2,2V32.33A2.85,2.85,0,0,0,9.5,35.17H27.17A2.82,2.82,0,0,0,30,32.37V14.46A8.4,8.4,0,0,1,24.94,16.16ZM19,18.91h4.07v4.22H19Zm-4.47,0h3.86v4.22H14.55ZM13.33,32.56H11.42a2.13,2.13,0,0,1-2.15-2.12v-2.7h4.06Zm4.68,0H13.94V27.74H18Zm4.67,0H18.62V27.74h4.06Zm4.68-2.29A2.31,2.31,0,0,1,25,32.56H23.29V27.74h4.07Zm0-3.13H9.27V21a2.14,2.14,0,0,1,2.15-2.13h2.43v4.82H27.36Zm0-4H23.7V18.91H25a2.31,2.31,0,0,1,2.32,2.29Z" transform="translate(-6.63 -1.23)"/><path class="cls-5" d="M28.41,7.06h-2.8V4.26c0-.37-.3-.4-.67-.4s-.67,0-.67.4v2.8h-2.8c-.37,0-.41.3-.41.67s0,.67.41.67h2.8v2.81c0,.37.3.4.67.4s.67,0,.67-.4V8.4h2.8c.37,0,.4-.3.4-.67S28.78,7.06,28.41,7.06Z" transform="translate(-6.63 -1.23)"/></g></g></g></svg>