<svg xmlns="http://www.w3.org/2000/svg" viewBox="0 0 129.06 129.06"><defs><style>.cls-1{fill:#f1f3f5;}.cls-2{fill:#ed1c24;}.cls-3{fill:#fff;}.cls-4{fill:none;stroke:#fff;stroke-linecap:round;stroke-miterlimit:10;stroke-width:3px;}</style></defs><title>PASSPORT</title><g id="Layer_2" data-name="Layer 2"><g id="Layer_1-2" data-name="Layer 1"><circle class="cls-1" cx="64.53" cy="64.53" r="64.53"/><rect class="cls-2" x="43.62" y="35.53" width="41.82" height="58" rx="2.94" ry="2.94"/><path class="cls-3" d="M64.53,44.43A13.88,13.88,0,1,0,78.41,58.31,13.89,13.89,0,0,0,64.53,44.43ZM76.37,58.31a11.73,11.73,0,0,1-2.46,7.2,1.9,1.9,0,0,1-.46-2.2,10.47,10.47,0,0,0,.45-4c-.09-.86-.54-2.93-1.75-2.95a2.8,2.8,0,0,1-2.76-1.86c-1.5-3,2.8-3.56,1.31-5.22-.42-.46-2.58,1.92-2.9-1.25a1.66,1.66,0,0,1,.49-.92A11.86,11.86,0,0,1,76.37,58.31ZM62.9,46.59c-.28.55-1,.78-1.48,1.19-1,.9-1.42.77-2,1.63s-2.26,2.1-2.26,2.72.87,1.35,1.31,1.21a4.54,4.54,0,0,1,2.26.1c.68.24,5.66.48,4.07,4.69-.5,1.34-2.7,1.11-3.29,3.33a17.85,17.85,0,0,0-.41,2.17c0,.7.49,3.35-.19,3.35s-2.51-2.37-2.51-2.8A27.35,27.35,0,0,1,58,61c0-1.29-2.2-1.27-2.2-3,0-1.55,1.19-2.32.93-3.06s-2.36-.76-3.23-.85A11.88,11.88,0,0,1,62.9,46.59Zm-2.09,23c.71-.37.78-.86,1.42-.88a14,14,0,0,0,2.17-.47,20.63,20.63,0,0,1,3.22-1c1-.08,2.91,0,3.44,1a11.75,11.75,0,0,1-10.25,1.36Z"/><line class="cls-4" x1="52.93" y1="82.36" x2="77.4" y2="82.36"/></g></g></svg>