<svg xmlns="http://www.w3.org/2000/svg" viewBox="0 0 129.06 129.06"><defs><style>.cls-1{fill:#f1f3f5;}.cls-2{fill:#fff;}.cls-2,.cls-3{fill-rule:evenodd;}.cls-3{fill:#ed1c24;}</style></defs><title>Prepaid_1</title><g id="Layer_2" data-name="Layer 2"><g id="Layer_1-2" data-name="Layer 1"><circle class="cls-1" cx="64.53" cy="64.53" r="64.53"/><path class="cls-2" d="M62.1,83.25A14.47,14.47,0,0,1,76.57,68.78c.29,0,.58,0,.86,0V56.61H44V89.46H63.52A14.37,14.37,0,0,1,62.1,83.25Z"/><path class="cls-3" d="M62.86,87.46H61.42V79.2h1.51c.11-.35.24-.69.37-1H45.39V67.7a3.65,3.65,0,0,1,3.68-3.63h4.17v8.25h14.3a14.85,14.85,0,0,1,1.43-1H62.11V64.07h7v7.15q.51-.31,1-.6V64.07h2.3a3.94,3.94,0,0,1,4,3.92v1l.34,0a14.17,14.17,0,0,1,4.19.63V49.44a4.21,4.21,0,0,0-1.51-2.59L68,35.14a3.88,3.88,0,0,0-3-1H44.33a3.45,3.45,0,0,0-3.47,3.44V87.06a4.9,4.9,0,0,0,4.93,4.87H65.05A14.32,14.32,0,0,1,62.86,87.46ZM54.45,64.07h6.62v7.22H54.45ZM52.36,87.46H49.07a3.66,3.66,0,0,1-3.68-3.64V79.2h7Zm8,0h-7V79.2h7Z"/><path class="cls-3" d="M81,80.05h-.55v2.3H81a2.23,2.23,0,0,0,1.27-.28,1,1,0,0,0,.4-.9.92.92,0,0,0-.41-.86A2.54,2.54,0,0,0,81,80.05Z"/><path class="cls-3" d="M72.82,79.94a1.91,1.91,0,0,0-1.63.73,4.53,4.53,0,0,0,0,4.29,1.89,1.89,0,0,0,1.61.72c1.44,0,2.16-1,2.16-2.86S74.25,79.94,72.82,79.94Z"/><path class="cls-3" d="M76.74,72A11.46,11.46,0,1,0,88.2,83.46,11.46,11.46,0,0,0,76.74,72Zm.07,17.11H74.5L72.94,87.2H72.8a3.87,3.87,0,0,1-3-1.14,5.55,5.55,0,0,1,0-6.5,4,4,0,0,1,3-1.12,3.91,3.91,0,0,1,3,1.13,4.63,4.63,0,0,1,1,3.25,5.27,5.27,0,0,1-.54,2.51,3.23,3.23,0,0,1-1.56,1.49Zm6.6-2-2-3.26h-1v3.26h-1.8V78.57H81.1a4.23,4.23,0,0,1,2.56.63,2.5,2.5,0,0,1,.42,3.26,2.65,2.65,0,0,1-1.17.91l2.51,3.71Z"/></g></g></svg>