<svg xmlns="http://www.w3.org/2000/svg" viewBox="0 0 86.04 86.04"><defs><style>.cls-1{fill:#f1f3f5;}.cls-2,.cls-4{fill:none;stroke-linecap:round;stroke-miterlimit:10;stroke-width:2px;}.cls-2{stroke:#ed1c24;}.cls-3{fill:#ed1c24;}.cls-4{stroke:#fff;}.cls-5{fill:#fff;}</style></defs><title>Scan GCC ID</title><g id="Layer_2" data-name="Layer 2"><g id="Layer_1-2" data-name="Layer 1"><circle class="cls-1" cx="43.02" cy="43.02" r="43.02"/><path class="cls-2" d="M66.5,33.74V23.28a3.16,3.16,0,0,0-3.16-3.15H54.25"/><path class="cls-2" d="M54.25,65.91h9.09a3.16,3.16,0,0,0,3.16-3.15V54"/><path class="cls-2" d="M33,20.13H23.87a3.15,3.15,0,0,0-3.16,3.15V33.74"/><path class="cls-2" d="M20.71,54v8.73a3.15,3.15,0,0,0,3.16,3.15H33"/><rect class="cls-3" x="26.84" y="32.68" width="33.54" height="21.29" rx="3.21" ry="3.21"/><line class="cls-4" x1="48.97" y1="39.67" x2="53.97" y2="39.67"/><line class="cls-4" x1="48.97" y1="43.63" x2="57.2" y2="43.63"/><line class="cls-4" x1="48.97" y1="47.58" x2="57.2" y2="47.58"/><path class="cls-5" d="M38.18,38.68,38,38.53l-.35,0-.42.74-1.27,0-1.7-1.51-1.08-.59L32.37,37l-.17.12-1.28.27.59.72-.19.17-.1.2-.5.15-.17.27-.33.2L29.54,39l-.35,1,.32,0,1.39,2.37-.06.19.2.43.7.44.32.82,0,.74.1.64.51.52.5.44.56,1.15.9,1.35.24-.24.12-.5h.4l.72-.1,1.6.32.94-1,1-.32,1.61-.34,1,1.68,1.16-.33.38-.67.62-.2.48-.63.47-.2.13-1.14.32-.08s.37-.89.49-.91.23-.69.23-.69l-.23-.12L45.75,43l-.84-.13-.64-.34s-.3-.44-.27-.59A7.33,7.33,0,0,0,44,41l-.54.72-.8.89-1.13.2-.43.17-.24-.15-.22-.05.07-.17,0-.35-.08-.39,0-.17-.2-.26-.22.21,0,.31-.07.45.12.17-.32-.41L40,42l-.32-.25-.07-.33.07-.16,0-.21L39,40.52l-.25-.32-.51-1.06-.22,0,.24-.21.15,0,0-.15Z"/><polygon class="cls-5" points="40.09 41.34 39.95 41.3 39.85 41.56 40.05 41.74 40.09 41.34"/></g></g></svg>