<svg xmlns="http://www.w3.org/2000/svg" viewBox="0 0 86.04 86.04"><defs><style>.cls-1{fill:#f1f3f5;}.cls-2,.cls-5{fill:none;stroke-linecap:round;stroke-miterlimit:10;stroke-width:2px;}.cls-2{stroke:#ed1c24;}.cls-3{fill:#ed1c24;}.cls-4{fill:#fff;}.cls-5{stroke:#fff;}</style></defs><title>Scan Passport</title><g id="Layer_2" data-name="Layer 2"><g id="Layer_1-2" data-name="Layer 1"><circle class="cls-1" cx="43.02" cy="43.02" r="43.02"/><path class="cls-2" d="M65.91,33.74V23.28a3.16,3.16,0,0,0-3.15-3.16h-9.1"/><path class="cls-2" d="M53.66,65.91h9.1a3.15,3.15,0,0,0,3.15-3.15V54"/><path class="cls-2" d="M32.38,20.12h-9.1a3.16,3.16,0,0,0-3.15,3.16V33.74"/><path class="cls-2" d="M20.13,54v8.73a3.15,3.15,0,0,0,3.15,3.15h9.1"/><rect class="cls-3" x="31.34" y="26.81" width="23.37" height="32.41" rx="1.64" ry="1.64"/><path class="cls-4" d="M43,31.79a7.76,7.76,0,1,0,7.75,7.75A7.77,7.77,0,0,0,43,31.79Zm6.61,7.75a6.58,6.58,0,0,1-1.37,4A1,1,0,0,1,48,42.34a6.11,6.11,0,0,0,.25-2.25c-.06-.48-.31-1.64-1-1.65a1.57,1.57,0,0,1-1.55-1c-.83-1.67,1.57-2,.74-2.92-.24-.26-1.45,1.07-1.62-.7a.91.91,0,0,1,.27-.51A6.61,6.61,0,0,1,49.63,39.54ZM42.11,33c-.16.3-.58.43-.83.66-.55.5-.79.43-1.09.91s-1.26,1.17-1.26,1.52.49.76.73.68a2.65,2.65,0,0,1,1.27,0c.37.14,3.16.27,2.27,2.62-.28.75-1.51.63-1.84,1.87a9.32,9.32,0,0,0-.23,1.21c0,.39.28,1.87-.1,1.87s-1.41-1.32-1.41-1.56A15.72,15.72,0,0,1,39.36,41c0-.72-1.23-.7-1.23-1.66s.67-1.3.52-1.71-1.32-.43-1.8-.48A6.63,6.63,0,0,1,42.11,33ZM40.94,45.82c.4-.21.44-.48.8-.49A7.88,7.88,0,0,0,43,45.06a11.78,11.78,0,0,1,1.8-.56c.54,0,1.62,0,1.92.56A6.65,6.65,0,0,1,43,46.16,6.48,6.48,0,0,1,40.94,45.82Z"/><line class="cls-5" x1="36.54" y1="52.98" x2="50.21" y2="52.98"/></g></g></svg>