<svg xmlns="http://www.w3.org/2000/svg" viewBox="0 0 129.06 129.06"><defs><style>.cls-1{fill:#f1f3f5;}.cls-2{fill:#fff;}.cls-2,.cls-3{fill-rule:evenodd;}.cls-3,.cls-4{fill:#ed1c24;}</style></defs><title>Shahrywith promotion</title><g id="Layer_2" data-name="Layer 2"><g id="Layer_1-2" data-name="Layer 1"><circle class="cls-1" cx="64.53" cy="64.53" r="64.53"/><path class="cls-2" d="M66.35,85.23A14.69,14.69,0,0,1,80.06,70.58V64.07H46.75V91.93H68A14.63,14.63,0,0,1,66.35,85.23Z"/><path class="cls-3" d="M66.85,89h-1.8V80.72h2c.11-.35.24-.69.38-1H49V69.2a3.66,3.66,0,0,1,3.69-3.64h4.17v8.27H71.77a15,15,0,0,1,2-1.36V65.56h2.3a4,4,0,0,1,4,3.93v1.09c.32,0,.65,0,1,0a14.82,14.82,0,0,1,3.55.45V50.92a4.23,4.23,0,0,0-1.51-2.59L71.61,36.6a3.86,3.86,0,0,0-3-1H48A3.46,3.46,0,0,0,44.46,39V88.59a4.92,4.92,0,0,0,4.94,4.88H68.87A14.89,14.89,0,0,1,66.85,89Zm-1.1-23.43h7V72.8h-7Zm-7.68,0H64.7V72.8H58.07ZM56,89H52.69A3.66,3.66,0,0,1,49,85.35V80.72h7Zm8,0H57V80.72h7Z"/><circle class="cls-4" cx="76.76" cy="81.34" r="1.07"/><path class="cls-4" d="M80.35,73.46A11.46,11.46,0,1,0,91.81,84.92,11.46,11.46,0,0,0,80.35,73.46Zm-3.59,5a2.87,2.87,0,1,1-2.86,2.87A2.86,2.86,0,0,1,76.76,78.47Zm-.54,11.91a1,1,0,0,1-1.33,0,.94.94,0,0,1,0-1.33l9.59-9.59a.94.94,0,0,1,1.32,1.33Zm7.71,1a2.87,2.87,0,1,1,2.86-2.87A2.87,2.87,0,0,1,83.93,91.37Z"/><circle class="cls-4" cx="83.93" cy="88.5" r="1.07"/></g></g></svg>