<svg xmlns="http://www.w3.org/2000/svg" viewBox="0 0 186 186"><defs><style>.cls-1{fill:#fff;}.cls-2{fill:#ed1c24;}.cls-3{fill:#b3b3b3;}</style></defs><title>Dealer app logo</title><g id="Layer_2" data-name="Layer 2"><g id="Layer_1-2" data-name="Layer 1"><circle class="cls-1" cx="93" cy="93" r="93"/><path class="cls-2" d="M130,136.91v-16a31.06,31.06,0,0,0-9.55-22.35,30,30,0,0,0-35.1-4.76,1.72,1.72,0,1,1-1.64-3,33.46,33.46,0,0,1,39.12,5.29,34.56,34.56,0,0,1,10.61,24.84v16Z"/><path class="cls-2" d="M99.71,85.36a18.23,18.23,0,1,1,18.23-18.23A18.25,18.25,0,0,1,99.71,85.36Zm0-33A14.79,14.79,0,1,0,114.5,67.13,14.8,14.8,0,0,0,99.71,52.34Z"/><path class="cls-3" d="M103,125.18H56.84V95.69H103ZM99.58,99.13H60.28v22.61h39.3Z"/><path class="cls-3" d="M103,137.1H56.84V128H103v9.14Zm-42.74-3.44h39.3V131.4H60.28Z"/><path class="cls-3" d="M148.85,137.1H37.15a1.72,1.72,0,0,1,0-3.44h111.7a1.72,1.72,0,0,1,0,3.44Z"/></g></g></svg>