<svg xmlns="http://www.w3.org/2000/svg" viewBox="0 0 129.06 129.06"><defs><style>.cls-1{fill:#f1f3f5;}.cls-2{fill:#ed1c24;fill-rule:evenodd;}</style></defs><title>MBB</title><g id="Layer_2" data-name="Layer 2"><g id="Layer_1-2" data-name="Layer 1"><circle class="cls-1" cx="64.53" cy="64.53" r="64.53"/><path class="cls-2" d="M75.44,55.06H53.69a1.61,1.61,0,0,0-1.63,1.59v.65h25v-.65a1.61,1.61,0,0,0-1.63-1.59"/><path class="cls-2" d="M52.06,72a1.61,1.61,0,0,0,1.63,1.59H75.44A1.61,1.61,0,0,0,77.07,72V58.52h-25Z"/><path class="cls-2" d="M85.79,46.31H43.27a8.54,8.54,0,0,0-8.6,8.48V74.26a8.54,8.54,0,0,0,8.6,8.48H85.79a8.53,8.53,0,0,0,8.59-8.48V54.79A8.53,8.53,0,0,0,85.79,46.31Zm-6,27.44a2,2,0,0,1-2,2H51.29a2,2,0,0,1-2-2V54.88a2,2,0,0,1,2-2H77.84a2,2,0,0,1,2,2Z"/></g></g></svg>