<svg xmlns="http://www.w3.org/2000/svg" xmlns:xlink="http://www.w3.org/1999/xlink" viewBox="0 0 25.82 33.56"><defs><style>.cls-1{fill:none;}.cls-2{clip-path:url(#clip-path);}.cls-3{fill:#ed1c24;}</style><clipPath id="clip-path" transform="translate(-5.4 -1.48)"><rect class="cls-1" width="36.63" height="36.63"/></clipPath></defs><title>Reports</title><g id="Layer_2" data-name="Layer 2"><g id="Layer_1-2" data-name="Layer 1"><g class="cls-2"><path class="cls-3" d="M28.72,1.48H7.9A2.5,2.5,0,0,0,5.4,4V32.54A2.49,2.49,0,0,0,7.9,35H28.72a2.49,2.49,0,0,0,2.5-2.5V4A2.5,2.5,0,0,0,28.72,1.48ZM22.83,7.94a1.29,1.29,0,1,1,2.58,0V19.55a1.29,1.29,0,1,1-2.58,0ZM19,15.68a1.29,1.29,0,0,1,2.58,0v3.87a1.29,1.29,0,1,1-2.58,0Zm-3.87-3.87a1.29,1.29,0,0,1,2.58,0v7.74a1.29,1.29,0,1,1-2.58,0Zm-3.88,3.87a1.29,1.29,0,0,1,2.58,0v3.87a1.29,1.29,0,1,1-2.58,0ZM24.77,30H11.86a1.29,1.29,0,0,1,0-2.58H24.77a1.29,1.29,0,0,1,0,2.58Zm0-3.87H11.86a1.3,1.3,0,0,1,0-2.59H24.77a1.3,1.3,0,0,1,0,2.59Z" transform="translate(-5.4 -1.48)"/></g></g></g></svg>