<svg xmlns="http://www.w3.org/2000/svg" viewBox="0 0 129.06 129.06"><defs><style>.cls-1{fill:#f1f3f5;}.cls-2{fill:#fff;}.cls-3{fill:#ed1c24;fill-rule:evenodd;}</style></defs><title>Shahrywithout promotion</title><g id="Layer_2" data-name="Layer 2"><g id="Layer_1-2" data-name="Layer 1"><circle class="cls-1" cx="64.53" cy="64.53" r="64.53"/><rect class="cls-2" x="46.75" y="64.07" width="33.31" height="27.87"/><path class="cls-3" d="M49,85.35V80.72h7V89H52.69A3.66,3.66,0,0,1,49,85.35ZM76.07,89h-3V80.72h7v4.34A4,4,0,0,1,76.07,89Zm4-19.5V72.8H73.78V65.56h2.29A4,4,0,0,1,80.06,69.49ZM72.73,72.8h-7V65.56h7Zm-8,0H58.07V65.56H64.7ZM72,89h-7V80.72h7Zm-8,0H57V80.72h7ZM52.69,65.56h4.17v8.27h23.2v5.86H49V69.2A3.66,3.66,0,0,1,52.69,65.56ZM44.46,39V88.59a4.92,4.92,0,0,0,4.94,4.88H79.73a4.85,4.85,0,0,0,4.86-4.8V50.92a4.23,4.23,0,0,0-1.51-2.59L71.61,36.6a3.86,3.86,0,0,0-3-1H48A3.46,3.46,0,0,0,44.46,39Z"/></g></g></svg>