<svg xmlns="http://www.w3.org/2000/svg" viewBox="0 0 129.06 129.06"><defs><style>.cls-1{fill:#f1f3f5;}.cls-2{fill:#ed1c24;}.cls-3{fill:none;stroke:#fff;stroke-linecap:round;stroke-miterlimit:10;stroke-width:3px;}.cls-4{fill:#fff;}</style></defs><title>GCC ID</title><g id="Layer_2" data-name="Layer 2"><g id="Layer_1-2" data-name="Layer 1"><circle class="cls-1" cx="64.53" cy="64.53" r="64.53"/><rect class="cls-2" x="30.98" y="43.23" width="67.09" height="42.59" rx="6.41" ry="6.41"/><line class="cls-3" x1="75.27" y1="57.22" x2="85.27" y2="57.22"/><line class="cls-3" x1="75.27" y1="65.14" x2="91.74" y2="65.14"/><line class="cls-3" x1="75.27" y1="73.05" x2="91.74" y2="73.05"/><path class="cls-4" d="M53.67,55.25l-.41-.3-.7,0-.84,1.48-2.55,0-3.4-3-2.15-1.17L42,51.93l-.33.23-2.55.54,1.17,1.44-.37.34-.2.4-1,.3-.33.54-.67.4-1.35-.33-.7,1.91.63,0,2.79,4.74-.13.36.4.88,1.41.87.64,1.65.1,1.48.2,1.27,1,1,1,.88,1.11,2.31,1.81,2.69.47-.47.24-1h.8l1.45-.2,3.19.64,1.88-1.91,2-.64L60,71.58l2,3.35,2.31-.67.78-1.34,1.24-.4.94-1.25.94-.4.27-2.28.64-.17s.74-1.78,1-1.82.47-1.37.47-1.37L70.09,65l-1.27-1.11-1.68-.27-1.28-.67s-.6-.87-.54-1.17a13,13,0,0,0-.1-1.85l-1.07,1.44-1.62,1.78-2.25.41-.87.33-.47-.3-.44-.1.14-.34.07-.7-.17-.77.1-.34-.41-.54-.43.44-.07.6-.13.91.23.34-.64-.81.1-.3-.63-.51-.14-.67.14-.3,0-.44-1.48-1.14-.5-.64-1-2.11-.44-.07.47-.44.31.07,0-.3Z"/><polygon class="cls-4" points="57.5 60.57 57.22 60.49 57.03 61.01 57.42 61.36 57.5 60.57"/></g></g></svg>