<svg xmlns="http://www.w3.org/2000/svg" viewBox="0 0 86.04 86.04"><defs><style>.cls-1{fill:#f1f3f5;}.cls-2{fill:none;stroke:#ed1c24;stroke-linecap:round;stroke-miterlimit:10;stroke-width:2px;}.cls-3{fill:#fff;}.cls-4{fill:#ed1c24;fill-rule:evenodd;}</style></defs><title>Scan SIM</title><g id="Layer_2" data-name="Layer 2"><g id="Layer_1-2" data-name="Layer 1"><circle class="cls-1" cx="43.02" cy="43.02" r="43.02"/><path class="cls-2" d="M65.91,33.74V23.28a3.16,3.16,0,0,0-3.15-3.16h-9.1"/><path class="cls-2" d="M53.66,65.91h9.1a3.15,3.15,0,0,0,3.15-3.15V54"/><path class="cls-2" d="M32.38,20.12h-9.1a3.16,3.16,0,0,0-3.15,3.16V33.74"/><path class="cls-2" d="M20.13,54v8.73a3.15,3.15,0,0,0,3.15,3.15h9.1"/><rect class="cls-3" x="33.66" y="39.36" width="18.48" height="18.48"/><path class="cls-4" d="M34.42,54.54V52h3.87v4.58H36.46A2,2,0,0,1,34.42,54.54Zm15,2H47.75V52h3.87v2.4A2.19,2.19,0,0,1,49.41,56.56Zm2.21-10.79V47.6H48.14v-4h1.27A2.19,2.19,0,0,1,51.62,45.77ZM47.56,47.6H43.7v-4h3.86Zm-4.44,0H39.44v-4h3.68Zm4.05,9H43.31V52h3.86Zm-4.44,0H38.87V52h3.86Zm-6.27-13h2.31v4.58H51.62v3.24H34.42v-5.8A2,2,0,0,1,36.46,43.59ZM31.91,28.9V56.34A2.71,2.71,0,0,0,34.64,59h16.8a2.68,2.68,0,0,0,2.69-2.66V35.49a2.34,2.34,0,0,0-.84-1.44l-6.35-6.5A2.17,2.17,0,0,0,45.26,27H33.84A1.91,1.91,0,0,0,31.91,28.9Z"/></g></g></svg>